# xmcd
#
# Track frame offsets: 
#        150
#        17374
#        34736
#        49904
#        66551
#        83491
#        97190
#        110426
#        132500
#        155262
#        170047
#
# Disc length: 2621 seconds
#
# Revision: 0
# Processed by: cddbd v1.5.2PL0 Copyright (c) Steve Scherf et al.
# Submitted via: ExactAudioCopy v0.99pb5
#
DISCID=900a3b0b
DTITLE=Simple Plan - Simple Plan
DYEAR=2008
DGENRE=Pop Punk
TTITLE0=When I'm Gone
TTITLE1=Take My Hand
TTITLE2=The End
TTITLE3=Your Love Is A Lie
TTITLE4=Save You
TTITLE5=Generation
TTITLE6=Time To Say Goodbye
TTITLE7=I Can Wait Forever
TTITLE8=Holding On
TTITLE9=No Love
TTITLE10=What If
EXTD=
EXTT0=
EXTT1=
EXTT2=
EXTT3=
EXTT4=
EXTT5=
EXTT6=
EXTT7=
EXTT8=
EXTT9=
EXTT10=
PLAYORDER=
